<?xml version="1.0" standalone="no"?>
<!DOCTYPE svg PUBLIC "-//W3C//DTD SVG 20010904//EN"
 "http://www.w3.org/TR/2001/REC-SVG-20010904/DTD/svg10.dtd">
<svg version="1.0" xmlns="http://www.w3.org/2000/svg"
 width="960.000000pt" height="960.000000pt" viewBox="0 0 960.000000 960.000000"
 preserveAspectRatio="xMidYMid meet">
<metadata>
Created by potrace 1.14, written by Peter Selinger 2001-2017
</metadata>
<g transform="translate(0.000000,960.000000) scale(0.100000,-0.100000)"
fill="#000000" stroke="none">
<path d="M0 7330 l0 -70 123 1 c68 0 135 -2 148 -5 13 -3 38 -8 54 -11 68 -13
83 -18 145 -47 76 -36 113 -61 152 -103 32 -35 65 -97 72 -140 3 -16 8 -41 11
-55 3 -14 8 -56 12 -95 9 -91 10 -3734 1 -3845 -11 -140 -30 -226 -63 -290
-21 -41 -111 -130 -131 -130 -8 0 -14 -4 -14 -8 0 -16 -123 -57 -201 -68 -30
-4 -110 -8 -179 -8 l-125 -1 0 -70 0 -70 1080 0 c594 -1 1085 2 1090 6 6 4 10
36 9 71 l0 63 -120 1 c-96 0 -175 7 -234 19 -65 13 -200 79 -251 123 -41 35
-86 104 -95 144 -33 155 -35 201 -36 1192 0 587 3 870 10 875 12 7 964 5 1047
-3 146 -14 208 -34 310 -101 74 -48 172 -198 190 -290 15 -75 26 -168 29 -245
l3 -65 69 -3 70 -3 -2 858 c-1 472 -2 861 -3 864 -2 11 -124 0 -131 -11 -4 -7
-11 -38 -14 -69 -4 -31 -16 -92 -27 -136 -11 -44 -21 -85 -22 -92 -2 -7 -6
-16 -10 -19 -4 -4 -7 -15 -7 -25 0 -29 -62 -137 -108 -189 -27 -30 -69 -62
-112 -84 -39 -19 -70 -33 -70 -31 0 2 -17 -2 -39 -9 -21 -8 -67 -18 -102 -22
-62 -7 -1039 -13 -1069 -6 -13 3 -15 120 -13 992 0 544 3 993 6 997 6 9 1178
8 1317 -1 135 -9 207 -19 298 -40 44 -10 141 -52 196 -84 68 -40 188 -154 233
-222 70 -106 144 -274 188 -430 l15 -56 66 0 65 -1 -6 151 c-7 201 -19 475
-31 721 -4 83 -7 171 -8 198 l0 47 -1893 0 -1893 0 0 -70z"/>
<path d="M4219 7378 c-1 -28 2 -112 4 -115 1 -1 29 -5 62 -8 33 -4 69 -9 80
-12 11 -2 31 -6 45 -9 178 -34 356 -150 438 -284 40 -66 142 -277 142 -294 0
-7 4 -16 9 -21 5 -6 50 -107 101 -225 51 -118 97 -221 103 -229 7 -8 11 -17
11 -20 -2 -8 49 -133 100 -246 41 -89 77 -172 81 -185 1 -3 13 -31 28 -64 15
-32 27 -60 27 -62 0 -2 11 -27 24 -56 13 -29 47 -107 76 -173 28 -66 58 -135
66 -152 8 -18 20 -48 28 -65 8 -18 23 -53 34 -78 11 -25 57 -130 102 -235 45
-104 90 -208 100 -230 10 -22 48 -110 85 -195 37 -85 75 -173 85 -195 9 -22
24 -56 32 -75 9 -19 23 -53 33 -75 9 -22 30 -68 46 -103 16 -35 29 -66 29 -71
0 -4 14 -35 30 -69 17 -34 30 -64 30 -67 0 -2 14 -34 30 -70 17 -36 30 -68 30
-70 0 -2 11 -28 24 -57 43 -93 136 -308 136 -314 0 -3 13 -33 29 -67 36 -79
57 -126 116 -262 26 -60 55 -128 65 -150 10 -22 55 -125 100 -230 45 -104 89
-206 98 -225 9 -19 16 -37 17 -40 0 -3 9 -22 19 -43 l19 -38 69 3 69 3 25 60
c13 33 52 128 85 210 33 83 67 164 74 180 8 17 70 170 140 340 69 171 130 319
135 330 5 11 52 126 105 255 52 129 100 244 105 255 5 11 39 94 75 185 37 91
73 179 80 195 23 52 79 190 81 195 0 3 5 16 11 30 6 14 21 50 33 80 12 30 27
66 33 80 6 14 11 27 12 30 1 3 6 16 12 30 6 14 36 87 67 162 31 76 83 204 116
285 34 81 90 220 126 308 57 138 86 209 124 300 4 11 15 36 24 57 9 20 16 39
16 42 0 3 12 31 26 63 15 31 27 62 29 67 1 6 7 22 12 36 6 14 20 48 31 75 11
28 27 64 36 80 9 17 16 33 16 37 0 7 89 231 120 303 5 11 19 43 30 70 12 28
28 63 36 79 8 16 14 35 14 43 0 7 3 13 8 13 8 0 32 49 32 67 0 7 4 13 9 13 5
0 13 9 16 20 24 76 258 360 296 360 7 0 20 6 28 14 25 21 158 72 239 91 l72
17 0 69 0 69 -783 0 -782 0 0 -65 c0 -35 4 -67 8 -71 4 -4 31 -11 60 -15 167
-25 288 -74 372 -151 111 -101 124 -195 60 -418 -9 -30 -17 -62 -20 -70 -9
-37 -80 -223 -168 -440 -292 -720 -339 -836 -372 -915 -7 -16 -34 -82 -59
-145 -26 -63 -50 -124 -55 -135 -5 -11 -22 -51 -37 -90 -15 -38 -31 -74 -36
-79 -4 -6 -8 -15 -8 -22 0 -7 -10 -34 -22 -61 -12 -26 -22 -50 -23 -53 -1 -3
-5 -14 -10 -25 -4 -11 -37 -90 -71 -177 -35 -86 -69 -169 -76 -185 -6 -15 -12
-30 -13 -33 -3 -8 -17 -42 -35 -85 -9 -22 -23 -56 -30 -75 -7 -19 -24 -59 -37
-88 -12 -29 -23 -59 -23 -67 0 -8 -5 -15 -12 -15 -6 0 -8 -3 -5 -7 4 -3 0 -17
-8 -30 -9 -13 -13 -23 -10 -23 3 0 0 -10 -7 -22 -6 -13 -13 -27 -14 -33 -1 -5
-11 -30 -22 -55 -11 -25 -39 -92 -62 -150 -23 -58 -48 -118 -55 -135 -8 -16
-21 -48 -30 -70 -11 -26 -19 -35 -23 -25 -4 13 -146 342 -192 445 -10 22 -68
157 -130 300 -62 143 -121 280 -132 305 -11 25 -27 61 -35 80 -9 19 -21 49
-29 66 -7 16 -35 82 -62 145 -27 63 -56 130 -65 149 -8 19 -22 51 -30 70 -8
19 -26 60 -40 90 -13 30 -52 120 -86 200 -34 80 -70 163 -80 185 -10 22 -25
56 -34 75 -42 97 -50 115 -52 120 -4 11 -28 67 -135 310 -61 140 -113 260
-114 265 -3 10 -22 54 -56 130 -64 143 -127 315 -157 430 -59 225 -17 366 132
439 54 26 179 60 265 71 94 12 105 14 120 14 13 1 16 15 15 69 l0 67 -1037 3
-1038 2 -1 -22z"/>
</g>
</svg>
